<svg width="58" height="58" viewBox="0 0 58 58" fill="none" xmlns="http://www.w3.org/2000/svg">
<g filter="url(#filter0_bdd_809_1134)">
<rect x="4" width="50" height="50" rx="25" fill="#00ADCC" fill-opacity="0.25" shape-rendering="crispEdges"/>
<path fill-rule="evenodd" clip-rule="evenodd" d="M37.7141 12.4105L29.0007 21.1272L20.2818 12.4078C20.0211 12.1528 19.6705 12.0107 19.3059 12.0123C18.9413 12.0138 18.5919 12.1588 18.3334 12.416L16.4177 14.3345C16.2866 14.4603 16.182 14.6112 16.1103 14.7781C16.0385 14.9451 16.001 15.1248 16 15.3065C15.999 15.4882 16.0345 15.6683 16.1043 15.8361C16.1742 16.0038 16.2771 16.1558 16.4068 16.2831L25.1229 24.9971L16.4095 33.7166C16.1549 33.9776 16.0134 34.3284 16.0154 34.6931C16.0174 35.0578 16.163 35.407 16.4205 35.6652L18.3361 37.5809C18.8998 38.1474 19.7482 38.1283 20.2846 37.5919L29.0034 28.8751L37.7168 37.5919C37.9779 37.8465 38.3287 37.9881 38.6933 37.986C39.0579 37.984 39.4071 37.8384 39.6653 37.5809L41.5837 35.6652C41.7146 35.5392 41.8189 35.3882 41.8905 35.2211C41.962 35.054 41.9992 34.8743 42 34.6926C42.0008 34.5109 41.965 34.3308 41.8949 34.1632C41.8248 33.9955 41.7218 33.8436 41.5919 33.7166L32.873 24.9971L41.5919 16.2831C41.8468 16.0224 41.9889 15.6718 41.9873 15.3071C41.9858 14.9425 41.8408 14.5931 41.5837 14.3345L39.668 12.4187C39.5396 12.2873 39.3865 12.1826 39.2174 12.1107C39.0483 12.0389 38.8666 12.0012 38.6828 12C38.5027 12.0015 38.3247 12.0385 38.1589 12.1089C37.9931 12.1794 37.8429 12.2819 37.7168 12.4105H37.7141Z" fill="white"/>
<rect x="4.5" y="0.5" width="49" height="49" rx="24.5" stroke="#00ADCC" shape-rendering="crispEdges"/>
</g>
<defs>
<filter id="filter0_bdd_809_1134" x="0" y="-1" width="58" height="59" filterUnits="userSpaceOnUse" color-interpolation-filters="sRGB">
<feFlood flood-opacity="0" result="BackgroundImageFix"/>
<feGaussianBlur in="BackgroundImageFix" stdDeviation="0.5"/>
<feComposite in2="SourceAlpha" operator="in" result="effect1_backgroundBlur_809_1134"/>
<feColorMatrix in="SourceAlpha" type="matrix" values="0 0 0 0 0 0 0 0 0 0 0 0 0 0 0 0 0 0 127 0" result="hardAlpha"/>
<feOffset dy="1"/>
<feGaussianBlur stdDeviation="0.5"/>
<feColorMatrix type="matrix" values="0 0 0 0 0.0352941 0 0 0 0 0.117647 0 0 0 0 0.258824 0 0 0 0.25 0"/>
<feBlend mode="normal" in2="effect1_backgroundBlur_809_1134" result="effect2_dropShadow_809_1134"/>
<feColorMatrix in="SourceAlpha" type="matrix" values="0 0 0 0 0 0 0 0 0 0 0 0 0 0 0 0 0 0 127 0" result="hardAlpha"/>
<feOffset dy="4"/>
<feGaussianBlur stdDeviation="2"/>
<feComposite in2="hardAlpha" operator="out"/>
<feColorMatrix type="matrix" values="0 0 0 0 0 0 0 0 0 0 0 0 0 0 0 0 0 0 0.25 0"/>
<feBlend mode="normal" in2="effect2_dropShadow_809_1134" result="effect3_dropShadow_809_1134"/>
<feBlend mode="normal" in="SourceGraphic" in2="effect3_dropShadow_809_1134" result="shape"/>
</filter>
</defs>
</svg>
