<svg width="137" height="64" viewBox="0 0 137 64" fill="none" xmlns="http://www.w3.org/2000/svg">
<path d="M93.157 54.613C89.6617 54.613 86.0879 54.39 84.3795 52.7558C83.0589 51.4927 82.8258 49.4125 82.8258 42.7257C82.8258 28.6081 83.6016 11.8892 83.6016 11.8892C80.8821 11.7412 77.3868 11.8892 75.212 12.2603C75.212 12.2603 75.4493 14.5398 75.6309 21.8996C74.5476 20.1056 73.2168 18.422 71.6589 16.9102C67.2145 12.5326 60.816 9.99648 54.104 9.95109C47.7241 9.8603 41.3257 12.3965 36.5469 16.9023C34.2566 19.0299 32.4491 21.6233 31.2091 24.491C30.1795 13.0774 26.3932 11.8872 17.0153 11.8872C4.58568 11.8892 -0.0754227 15.9747 0.000921131 38.2672C0.000921131 56.0992 3.18673 59.4426 16.0042 59.4426C27.2681 59.4426 30.2971 57.2143 30.2971 40.4955C28.7434 40.1244 24.3154 40.1244 22.1406 40.4955C22.5286 46.8112 22.4522 50.6756 21.7527 52.0118C20.9769 53.4979 19.9659 53.869 14.3721 53.869C11.0316 53.869 9.47788 53.4979 8.70206 52.0118C7.92624 50.5256 7.76943 45.6961 7.76943 37.8942C7.76943 27.12 8.15734 21.8444 8.85681 20.4332C9.63263 18.947 11.0316 18.2049 16.7017 18.2049C20.7417 18.2049 22.6833 18.651 23.4591 20.0622C24.1586 21.4003 24.3134 24.8917 24.3134 29.3502C25.8464 29.4962 28.1182 29.4509 29.7152 29.2949C29.4325 30.7337 29.2778 32.21 29.2675 33.7021C29.319 40.6099 32.5812 45.3507 36.3571 50.8414L36.4685 51.0032C36.6501 51.4256 36.8461 51.996 37.0545 52.5999C37.8035 54.7709 38.7341 57.4709 40.4178 58.0749C42.0024 58.6433 42.5121 58.2071 43.0589 57.5281C43.4035 57.0999 43.7604 56.6578 44.8107 56.4722C46.9648 56.0933 48.2668 57.8242 49.6451 59.6558C50.8439 61.2485 52.0819 62.8945 53.9987 63.3603L54.1143 63.3879L54.2257 63.3504C56.1075 62.7169 57.3476 61.1617 58.5464 59.6577C59.9432 57.9051 61.2638 56.2492 63.4633 56.1801C63.8595 56.1663 64.2825 56.3499 64.7323 56.5413C65.376 56.8157 66.1065 57.1275 66.9339 56.9321C68.8363 56.4841 70.26 53.6519 71.2009 51.7789C71.3948 51.394 71.562 51.0585 71.7064 50.8039C73.1672 48.9013 74.6116 46.9256 75.8207 44.8059C75.7712 53.115 75.5195 59.4406 75.5195 59.4406C75.5195 59.4406 81.9674 59.0696 88.1822 59.0696C98.2803 59.0696 101.154 59.2176 101.154 59.2176C101.388 58.2525 101.233 54.8341 101 54.24C101 54.24 97.426 54.6111 93.1549 54.6111L93.157 54.613ZM70.3054 49.4006C69.9422 49.8506 69.6142 50.3795 69.2675 50.942C68.6382 51.9565 67.9882 53.0065 67.1258 53.5611C66.0693 54.24 65.5452 54.1788 64.821 54.096C64.2598 54.0308 63.6243 53.9578 62.6875 54.2124C60.6283 54.7749 59.3738 56.3716 58.1605 57.915C56.9865 59.409 55.8764 60.8202 54.1102 61.3156C52.542 60.7807 51.3886 59.3913 50.2744 58.0452C48.8445 56.3183 47.3692 54.538 44.9902 54.538C44.854 54.538 44.7157 54.544 44.5754 54.5558C44.0225 54.6032 43.583 54.7295 43.193 54.842C42.4192 55.067 41.9529 55.2012 41.0801 54.6032C40.2362 54.0249 39.6193 52.7558 39.023 51.5302C38.6536 50.7723 38.3049 50.0539 37.9046 49.4973L37.6343 49.1243C34.0916 44.2178 31.0316 39.9803 31.1162 33.7061C31.1781 27.8364 33.7862 22.0694 38.2698 17.8832C42.6132 13.8293 48.2193 11.6366 54.0916 11.7195C60.228 11.7787 66.2571 14.2734 70.6335 18.5622C74.8716 22.7167 77.1598 28.091 77.0752 33.7001C77.0752 39.781 74.4837 44.2158 70.3013 49.4006H70.3054Z" fill="white"/>
<path d="M136.735 54.8362C136.735 54.8362 135.103 54.9842 132.773 54.9842C126.558 54.9842 126.092 54.3152 124.229 48.5205L123.063 44.8791C119.877 34.8489 116.072 21.3984 113.664 11.8874C112.499 11.7394 110.557 11.5894 108.461 11.5894C106.364 11.5894 104.111 11.7374 102.403 11.8874C98.208 27.1201 94.8674 38.2654 90.4395 52.3829C91.5268 52.681 94.7126 52.829 97.2753 52.829C98.208 52.829 98.7506 52.829 99.3717 52.754C99.3717 52.754 99.7596 49.7067 100.925 45.3232C101.47 43.2429 102.479 42.7969 108.694 42.7969H109.082C113.51 42.7969 114.209 42.9449 114.83 45.1751L116.85 52.754C118.326 58.1776 119.646 59.5908 127.415 59.5908C133.242 59.5908 136.737 58.9217 136.737 58.9217C137.048 58.5506 137.125 55.5783 136.737 54.8342L136.735 54.8362ZM107.916 38.2673H107.528C103.255 38.2673 102.246 38.1923 102.246 36.4831C102.246 35.741 102.557 34.6259 102.945 33.0648L105.044 25.1149C106.053 21.4004 106.598 19.3182 107.685 19.3182C108.618 19.3182 109.005 20.8044 110.014 24.5188L112.344 33.2858C112.732 34.92 112.965 35.6641 112.965 36.4062C112.965 38.1904 111.411 38.2634 107.916 38.2634V38.2673Z" fill="white"/>
<path d="M126.792 51.4929C127.336 51.6409 131.22 51.8639 133.939 51.6409L134.251 12.0374C132.697 11.5914 128.036 11.7394 126.482 12.1124C126.482 12.1124 126.948 27.8642 126.948 37.8963C126.948 44.212 126.794 51.4949 126.794 51.4949L126.792 51.4929Z" fill="white"/>
<path d="M128.578 10.5512C130.677 8.917 134.715 5.72164 136.968 3.5664C136.269 2.37826 133.473 0.296049 132.462 0C131.063 2.15524 128.578 5.86967 126.48 8.917C126.713 9.51107 128.267 10.5512 128.578 10.5512Z" fill="white"/>
<path d="M47.9984 32.6323C50.297 32.6698 51.145 26.9936 51.145 24.9923C51.145 22.991 50.3032 17.3147 47.9984 17.3522C45.6462 17.3917 44.8518 22.8469 44.8518 24.9923C44.8518 27.1376 45.64 32.5928 47.9984 32.6323Z" fill="white"/>
<path d="M60.1991 32.6323C62.4977 32.6698 63.3457 26.9936 63.3457 24.9923C63.3457 22.991 62.5039 17.3147 60.1991 17.3522C57.8469 17.3917 57.0525 22.8469 57.0525 24.9923C57.0525 27.1376 57.8407 32.5928 60.1991 32.6323Z" fill="white"/>
<path d="M72.3812 32.208C72.3812 32.208 72.3708 32.208 72.3667 32.208C72.3626 32.208 72.3585 32.208 72.3543 32.208C71.0524 32.2119 69.8701 32.7764 69.1128 33.7573C68.9044 34.0277 68.9643 34.4086 69.2469 34.6099C69.5296 34.8092 69.9278 34.752 70.1383 34.4816C70.5283 33.9783 71.0833 33.6349 71.7168 33.4968C71.3289 42.3131 63.4097 49.7262 54.102 49.7262C44.7736 49.7262 36.8524 42.2855 36.4851 33.4573C37.1185 33.5974 37.6736 33.9389 38.0636 34.4421C38.1894 34.604 38.3813 34.6888 38.5753 34.6888C38.7073 34.6888 38.8394 34.6494 38.9529 34.5684C39.2355 34.3691 39.2954 33.9862 39.0849 33.7158C38.3235 32.731 37.1371 32.1665 35.829 32.1665C34.5229 32.1665 33.3364 32.731 32.5771 33.7158C32.3687 33.9862 32.4286 34.3671 32.7112 34.5684C32.9939 34.7678 33.3921 34.7106 33.6026 34.4402C33.9988 33.929 34.5662 33.5836 35.212 33.4494C35.5999 42.4868 44.2433 51.5854 54.102 51.5577C63.9462 51.5854 72.5751 42.5144 72.9898 33.4908C73.6357 33.625 74.2052 33.9704 74.6013 34.4816C74.7251 34.6434 74.9191 34.7283 75.113 34.7283C75.2451 34.7283 75.3771 34.6888 75.4906 34.6079C75.7733 34.4086 75.8331 34.0257 75.6227 33.7553C74.8634 32.7744 73.6831 32.2099 72.3832 32.206L72.3812 32.208Z" fill="white"/>
</svg>
