<svg width="58" height="58" viewBox="0 0 58 58" fill="none" xmlns="http://www.w3.org/2000/svg">
<circle cx="29" cy="29" r="27" stroke="#CF2CD9" stroke-width="4"/>
<path fill-rule="evenodd" clip-rule="evenodd" d="M36.0624 16.9477C35.4578 16.3405 34.6418 16 33.7915 16C32.9412 16 32.1252 16.3405 31.5206 16.9477L22.0306 26.4997C21.3425 27.2082 21 28.1248 21 29.0315C21 29.9383 21.3425 30.8386 22.0306 31.5309L31.4886 41.0536C32.0936 41.66 32.9095 42 33.7595 42C34.6096 42 35.4254 41.66 36.0304 41.0536C36.3286 40.7552 36.5655 40.3995 36.7271 40.0072C36.8888 39.615 36.972 39.194 36.972 38.7688C36.972 38.3436 36.8888 37.9227 36.7271 37.5304C36.5655 37.1382 36.3286 36.7825 36.0304 36.484L28.6144 29.0153L36.0624 21.5173C36.3595 21.2182 36.5953 20.8623 36.7562 20.4701C36.9171 20.078 37 19.6573 37 19.2325C37 18.8076 36.9171 18.387 36.7562 17.9949C36.5953 17.6027 36.3595 17.2468 36.0624 16.9477Z" fill="#CF2CD9"/>
</svg>
