<svg width="58" height="58" viewBox="0 0 58 58" fill="none" xmlns="http://www.w3.org/2000/svg">
<circle cx="29" cy="29" r="27" stroke="#CF2CD9" stroke-width="4"/>
<path fill-rule="evenodd" clip-rule="evenodd" d="M21.9376 41.0523C22.5422 41.6595 23.3582 42 24.2085 42C25.0588 42 25.8748 41.6595 26.4794 41.0523L35.9694 31.5003C36.6575 30.7918 37 29.8752 37 28.9685C37 28.0617 36.6575 27.1614 35.9694 26.4691L26.5114 16.9464C25.9064 16.34 25.0905 16 24.2405 16C23.3904 16 22.5746 16.34 21.9696 16.9464C21.6714 17.2448 21.4345 17.6005 21.2729 17.9928C21.1112 18.385 21.028 18.806 21.028 19.2312C21.028 19.6564 21.1112 20.0773 21.2729 20.4696C21.4345 20.8618 21.6714 21.2175 21.9696 21.516L29.3856 28.9847L21.9376 36.4827C21.6405 36.7818 21.4047 37.1377 21.2438 37.5299C21.0829 37.922 21 38.3427 21 38.7675C21 39.1924 21.0829 39.613 21.2438 40.0051C21.4047 40.3973 21.6405 40.7532 21.9376 41.0523Z" fill="#CF2CD9"/>
</svg>
